PathFileType	4	(X/Y/Z)	pose_F01_0-97.trc
DataRate	CameraRate	NumFrames	NumMarkers	Units	OrigDataRate	OrigDataStartFrame	OrigNumFrames
60	60	8	21	m	60	84	97
Frame#	Time	CHip			RHip			RKnee			RAnkle			RBigToe			RSmallToe			RHeel			LHip			LKnee			LAnkle			LBigToe			LSmallToe			LHeel			Neck			Nose			RShoulder			RElbow			RWrist			LShoulder			LElbow			LWrist			
		X1	Y1	Z1	X2	Y2	Z2	X3	Y3	Z3	X4	Y4	Z4	X5	Y5	Z5	X6	Y6	Z6	X7	Y7	Z7	X8	Y8	Z8	X9	Y9	Z9	X10	Y10	Z10	X11	Y11	Z11	X12	Y12	Z12	X13	Y13	Z13	X14	Y14	Z14	X15	Y15	Z15	X16	Y16	Z16	X17	Y17	Z17	X18	Y18	Z18	X19	Y19	Z19	X20	Y20	Z20	X21	Y21	Z21	
84	1.4	-0.21638742890969132	1.806383730073665	-0.44126158297073736	-0.22254453542394365	1.8030017156346785	-0.3836907239056946	-0.24696094206485122	1.6624393983520487	-0.3835798440127411	-0.25391538398258706	1.5324637765268627	-0.37867589759059794	-0.20102544895661661	1.496665674065989	-0.36210310236462134	-0.21121622008976035	1.502962133719345	-0.34671718524653417	-0.26259146323385774	1.518532660150839	-0.38627229215481934	-0.20809259655722542	1.8093391515268509	-0.4954036764804884	-0.22358024754676453	1.6646393839927132	-0.47380996160468586	-0.24947342236511336	1.5384958399866855	-0.5240607035241428	-0.35152076211316163	1.514110300416362	-1.048180050711928	-0.34676915498643635	1.523902071143449	-1.0344293003277045	-0.4048451767261316	1.5387190570213976	-0.9912069379363051	-0.22232385533572077	1.981314593416173	-0.4770733397767973	-0.176943390313291	2.051028902844806	-0.495337070849288	-0.23122481426281927	1.9799638080853867	-0.39631880197490266	-0.2245160410246995	1.8890720017667704	-0.35873290851047546	-0.21934679511827718	1.8074108736729646	-0.3324386136264514	-0.21363835186705507	1.9826335252441603	-0.5553511866750589	-0.20411736619902157	1.8906598884019743	-0.5664079117876212	-0.18251452880324803	1.8174381104056547	-0.5632769735898242
85	1.4166666666666667	-0.21878190050691662	1.8036435027019762	-0.43862732946442246	-0.2339889350381427	1.7995308028620365	-0.3751527765685054	-0.24603853957523886	1.6631793065760534	-0.3801866555920379	-0.25374947138634885	1.5338856914169097	-0.3793362769179805	-0.19903435277009626	1.495980225396147	-0.36460295455392666	-0.2131551907893934	1.503134311621835	-0.3446496982256294	-0.26565522226942856	1.5186837569478353	-0.38750088268082833	-0.20851254279629508	1.8066606933854428	-0.49496868374052466	-0.22577658389530378	1.6658808642978091	-0.46253810800364603	-0.24947342236511336	1.5384958399866855	-0.5240607035241428	-0.35152076211316163	1.514110300416362	-1.048180050711928	-0.34676915498643635	1.523902071143449	-1.0344293003277045	-0.4048451767261316	1.5387190570213976	-0.9912069379363051	-0.22450024138617586	1.9791485360871828	-0.4746345974346978	-0.18291944133817528	2.0508330877376184	-0.48849372416999165	-2.00032142008385	1.9027385913794939	1.638253943542928	-0.2246994246249183	1.8816158273933543	-0.35743501314435894	-0.19380720180109817	1.8025619921359806	-0.3622638508641067	-0.21375251319677357	1.982881421675573	-0.5558508677322125	-0.20608141825636525	1.892131947220546	-0.5731232519086624	-0.18291828285133505	1.8150525715644583	-0.5627891293711866
86	1.4333333333333333	-0.21975871856473436	1.806205283360819	-0.4423428525046468	-0.23372077462168422	1.8018063728375167	-0.3758111063629161	-0.24612753288390993	1.66341648629537	-0.3801366664588391	-0.2539235841857689	1.5323658358878551	-0.3786499717664533	-0.1991756354062012	1.4968594350566742	-0.364264102764404	-0.2111555398873555	1.5027210881409625	-0.34675039155994014	-0.26435786721696014	1.5178402118293253	-0.38413580690465055	-0.20961731851670562	1.8080282261302947	-0.4983681997730228	-0.22580217305657213	1.6659790157429943	-0.46259162498831863	-0.24947342236511336	1.5384958399866855	-0.5240607035241428	-0.35152076211316163	1.514110300416362	-1.048180050711928	-0.34676915498643635	1.523902071143449	-1.0344293003277045	-0.4048451767261316	1.5387190570213976	-0.9912069379363051	-0.22839516302222085	1.9789777060007572	-0.47029276649119406	-0.18684103617884038	2.050486510517834	-0.4840403928426735	-2.0001417221127458	1.9028841339546168	1.6382016798134837	-0.22330000589844126	1.8848998137228057	-0.35456292927187427	-0.1923995438885086	1.8066906925766106	-0.36370047630423147	-0.21478891558640992	1.9805378364922381	-0.5584486306303872	-0.20717117190699927	1.8933510696584055	-0.5765043871348441	-0.18523493286033738	1.816239783875271	-0.5607623758724861
87	1.45	-0.22219257592665612	1.8067836694743449	-0.44381114559203677	-0.23617969796794083	1.8027271006718932	-0.3772855458422695	-0.24705401286316883	1.66287359579731	-0.3834039942021279	-0.2535137786726975	1.5327094523357765	-0.37947099912365695	-0.2002239768313144	1.4968022552268212	-0.3677586836446036	-0.21205337139599717	1.5021951973640875	-0.35007290013879916	-0.26403529575682866	1.5164420984408706	-0.3840070344048354	-0.21012676713545272	1.8091326355549546	-0.502109036511571	-0.2230206099172824	1.6674900231523868	-0.47035206234887755	-0.24947342236511336	1.5384958399866855	-0.5240607035241428	-0.35152076211316163	1.514110300416362	-1.048180050711928	-0.34676915498643635	1.523902071143449	-1.0344293003277045	-0.24997924724675774	1.526274592076239	-0.5133054408809321	-0.2284420754949487	1.9789489463491743	-0.4702693854424244	-0.18694398610135393	2.0503968569305946	-0.4839854423522503	-0.23506269889644177	1.9759667295465846	-0.3824913726889247	-0.22675589964139944	1.885313283707865	-0.3501521418570846	-0.18919682447348174	1.806674962558316	-0.3717007727160939	-0.21566152921204082	1.9831135804525772	-0.5620849234629184	-0.20810472632588456	1.8907401217503375	-0.5794988145119078	-0.18940833459521206	1.8081340101022614	-0.5637879261935173
88	1.4666666666666666	-0.2231985996489193	1.8027534371751301	-0.44672539854398685	-0.2384059292404626	1.7974003650900578	-0.3831089623927783	-0.24897327898558655	1.6625419553004335	-0.3814590750698788	-0.25556320399487265	1.5339574830308924	-0.3771715830381276	-0.20226843198501268	1.4967753274576672	-0.36570382225721637	-0.21416313911598672	1.502844557889962	-0.3476000775827208	-0.2639990710839988	1.5163157440469943	-0.3839401395080686	-0.21326330657380202	1.8082984676137932	-0.5117429566039141	-0.22543207145791636	1.6672650731634076	-0.48561698216812105	-0.24947342236511336	1.5384958399866855	-0.5240607035241428	-0.35152076211316163	1.514110300416362	-1.048180050711928	-0.34676915498643635	1.523902071143449	-1.0344293003277045	-0.25784351579819254	1.5280240163420138	-0.527999824623859	-0.23139708561507888	1.9789602059889146	-0.4714040399859831	-0.18892624173524145	2.049106373736321	-0.4813587864601742	-0.2416089205530445	1.976852060644982	-0.3792469819230355	-0.2299151042421141	1.8858549110766607	-0.3514852358073414	-0.19507325526901462	1.8075085452841886	-0.3652828405389892	-0.21962757030034089	1.9821323783558038	-0.5662705618231111	-0.21009882485768186	1.8925041830704703	-0.5861300610329953	-0.19949400716216378	1.8119037534902087	-0.5706380914771412
89	1.4833333333333334	-0.2241414330741458	1.800019630570377	-0.45471796683996674	-0.24010391801161968	1.7953504126454158	-0.38599365663875135	-0.25052030451713725	1.6630960293185206	-0.3842026435814113	-0.25555299357568445	1.5365961220266249	-0.3774356300443326	-0.20054507182353024	1.4975956159069144	-0.3678708206331266	-0.21421791488811381	1.5031774114475405	-0.34765423569394616	-0.26471153717560786	1.5183137512113798	-0.3792051137584131	-0.21647462576283563	1.8056716722240718	-0.5211947317303144	-0.2281023872935832	1.6647960430331201	-0.504856125640098	-0.24947342236511336	1.5384958399866855	-0.5240607035241428	-0.35152076211316163	1.514110300416362	-1.048180050711928	-0.34676915498643635	1.523902071143449	-1.0344293003277045	-0.2654336571272736	1.5289660694231908	-0.551001870746724	-0.23257779867640174	1.9778985077428763	-0.4744489476607811	-0.1899425100876648	2.049267928228536	-0.4844547356175315	-0.24364055595683323	1.9742525373981537	-0.37665404417010706	-0.2319535892129526	1.884482105155671	-0.35772970925141845	-0.2110925829851078	1.8073236764279719	-0.3600462538689434	-0.2205601987589039	1.9822355810494698	-0.5693918811230742	-0.211776688645521	1.8953662704157563	-0.5930816930575604	-0.1942762196674825	1.8130320522974557	-0.5893753885369983
90	1.5	-0.23225085188769196	1.8028043929670725	-0.4589037982601107	-0.24230348633606086	1.7980263967622303	-0.3881508086708351	-0.25133115196951544	1.6635883185386586	-0.38804604537465953	-0.25554342853055595	1.5336325714765158	-0.377198206719633	-0.20050480041894708	1.4975915723710627	-0.36786656359612485	-0.212044523828724	1.5018454802225956	-0.35004527127818563	-0.2661872132958518	1.5170712320556223	-0.38199043044234704	-0.21684492532799637	1.8071221609367665	-0.5251224662684362	-0.23208276097721822	1.6670065737763062	-0.5274078809931737	-0.2639441259735095	1.5394881153009692	-0.5715986647980515	-0.35152076211316163	1.514110300416362	-1.048180050711928	-0.34676915498643635	1.523902071143449	-1.0344293003277045	-0.27387276443775455	1.5281274683715012	-0.5777972432005919	-0.23542096868551568	1.9790750460354822	-0.4757201355145575	-0.19280303286914774	2.05072116532655	-0.4861299971265369	-0.2473861317716721	1.97649668713517	-0.38098262063808774	-0.2385627916563546	1.8838553451426674	-0.3543101340125267	-0.21932026685846642	1.8009762509084517	-0.3590093331263324	-0.2215950304749122	1.9823418132505382	-0.5725746773928364	-0.21459689395740042	1.895530394360022	-0.6026066839617918	-0.19878556000423506	1.816205701246085	-0.6060125967702564
91	1.5166666666666666	-0.23244917419807623	1.8073266345285146	-0.46827815338720846	-0.24273487964188145	1.8029897831924417	-0.397418237157456	-0.2526262959429475	1.6649114059316654	-0.3913824747834423	-0.25576636936609115	1.5348613367365276	-0.3768055659839642	-0.20403613318426478	1.4981925860631706	-0.3641836905359097	-0.21615442781828037	1.5030775921053792	-0.3453870788409275	-0.26635512888089613	1.5180233530464162	-0.3818691484903009	-0.2200135026487668	1.8104632870646358	-0.5352201367233054	-0.23532894168287277	1.671766116340896	-0.5378846292994577	-0.2639441259735095	1.5394881153009692	-0.5715986647980515	-0.35152076211316163	1.514110300416362	-1.048180050711928	-0.34676915498643635	1.523902071143449	-1.0344293003277045	-0.4226407696928118	1.507763806801746	-1.0204781292739573	-0.23759253421268928	1.9781482633886438	-0.4821157988757874	-0.19472508651126746	2.05092935670787	-0.4925180728889852	-0.24977952476499718	1.9745333788352586	-0.38758469613176527	-0.2445468092417151	1.882786566742711	-0.3566740478757233	-0.22748543862468254	1.8045631201012764	-0.359524160736819	-0.2226324212278633	1.982388040938326	-0.5756936249454749	-0.21556537730774528	1.8957018344456111	-0.6058121201908654	-0.20253962795962777	1.8145505227266239	-0.6102161799354251
